<?xml version="1.0" encoding="UTF-8"?>
<svg width="247px" height="40px" viewBox="0 0 247 40" version="1.1" xmlns="http://www.w3.org/2000/svg" xmlns:xlink="http://www.w3.org/1999/xlink">
    <!-- Generator: Sketch 50.2 (55047) - http://www.bohemiancoding.com/sketch -->
    <title>Watchlist Text Logo Copy</title>
    <desc>Created with Sketch.</desc>
    <defs></defs>
    <g id="Watchlist-Text-Logo-Copy" stroke="none" stroke-width="1" fill="none" fill-rule="evenodd">
        <path d="M66.3128079,18.3977901 L57.7955665,18.3977901 C57.9614868,16.4088398 58.2380206,14.0331492 60.8374384,11.9889503 C63.492163,9.88950276 66.9211823,9.44751381 70.2948948,9.44751381 C73.8345275,9.44751381 82.4070757,10.2762431 82.4070757,17.7348066 L82.4070757,34.5303867 C82.4070757,37.6243094 82.572996,38.0662983 83.2366771,39.0607735 L74.885356,39.0607735 L74.885356,36.4088398 C72.7283923,38.0110497 70.2948948,39.8342541 66.0362741,39.8342541 C59.3994626,39.8342541 56.5788177,35.0828729 56.5788177,31.0497238 C56.5788177,26.4088398 60.2843708,23.7569061 62.6625616,22.7624309 C64.9854456,21.7679558 70.460815,20.7734807 74.0557546,20.1104972 L74.0557546,18.5635359 C73.9451411,17.2375691 73.8345275,15.0276243 70.7926556,15.0276243 C67.0317958,15.0276243 66.5340349,17.3480663 66.3128079,18.3977901 Z M74.0557546,25.2486188 L68.5803851,27.0718232 C67.1424093,27.6243094 64.9301388,28.4530387 64.9301388,30.6629834 C64.9301388,32.0441989 66.1468876,33.5911602 68.137931,33.5911602 C69.1887595,33.5911602 70.1842812,33.2044199 71.0691894,32.6519337 C73.8898343,30.8839779 74.0004478,28.2320442 74.0557546,25.2486188 Z M91.2008509,10.8287293 L91.2008509,1.87845304 L99.6627855,1.87845304 L99.6627855,10.8839779 L105.248768,10.8839779 L105.248768,16.0773481 L99.6074787,16.0773481 L99.6074787,29.0607735 C99.552172,30.8287293 99.552172,32.320442 101.819749,32.320442 L104.861621,32.2099448 L104.861621,38.839779 C103.036498,39.1160221 101.930363,39.281768 100.381773,39.281768 C97.450515,39.281768 94.2427228,39.1160221 92.4175996,36.4640884 C91.2561576,34.7513812 91.2008509,32.7071823 91.2008509,29.9447514 L91.2008509,16.0220994 L86.9975369,16.0220994 L86.9975369,10.8287293 L91.2008509,10.8287293 Z M128.532915,28.9502762 L134.9485,32.2651934 C133.897671,33.9226519 132.736229,35.7458564 130.413345,37.4033149 C128.201075,38.9502762 125.38043,40 122.117331,40 C116.586655,40 107.79288,36.6850829 107.79288,24.9171271 C107.79288,16.519337 112.659875,9.44751381 122.283251,9.44751381 C125.491043,9.44751381 130.966413,10.3314917 134.616659,16.3535912 L128.311688,19.9447514 C127.813927,18.8950276 127.26086,17.9005525 125.878191,16.9060773 C125.048589,16.3535912 123.997761,15.9116022 122.670399,15.9116022 C118.079937,15.9116022 116.531348,21.160221 116.531348,24.640884 C116.531348,28.4530387 118.411778,33.2596685 122.946932,33.2596685 C123.389386,33.2596685 125.491043,33.2596685 127.26086,31.2707182 C127.979848,30.441989 128.256382,29.7790055 128.532915,28.9502762 Z M137.381997,0 L145.899239,0 L145.899239,13.2596685 C147.115987,12.0441989 149.604792,9.44751381 154.195253,9.44751381 C156.29691,9.44751381 158.619794,10.0552486 160.334304,11.4917127 C162.878415,13.6464088 163.320869,16.3535912 163.320869,20.1104972 L163.320869,39.0607735 L154.858934,39.0607735 L154.858934,23.9779006 C154.858934,21.6574586 154.803627,20.5524862 154.471787,19.558011 C153.642185,16.961326 151.374608,16.6850829 150.4897,16.6850829 C148.996417,16.6850829 147.724362,17.4033149 147.005374,18.3425414 C145.899239,19.8342541 145.899239,22.2099448 145.899239,24.6961326 L145.899239,39.0607735 L137.381997,39.0607735 L137.381997,0 Z M170.787282,0.0552486188 L179.304523,0.0552486188 L179.304523,39.0607735 L170.787282,39.0607735 L170.787282,0.0552486188 Z M187.04747,6.57458564 L187.04747,0 L195.454098,0 L195.454098,6.57458564 L187.04747,6.57458564 Z M187.04747,39.0607735 L187.04747,10.1657459 L195.454098,10.1657459 L195.454098,39.0607735 L187.04747,39.0607735 Z M199.214957,34.198895 L204.579713,29.3370166 C206.902597,31.6022099 209.778549,33.3149171 212.986341,33.3149171 C215.032691,33.3149171 218.12987,32.6519337 218.12987,30.4972376 C218.12987,29.5027624 217.521496,29.1160221 217.023735,28.839779 C215.751679,28.1767956 213.760636,28.0110497 212.101433,27.7348066 C210.829378,27.5138122 209.502015,27.2375691 208.22996,26.8508287 C206.460143,26.3535912 204.690327,25.6353591 203.418271,24.3646409 C202.146216,23.0939227 201.261308,21.1049724 201.261308,18.9502762 C201.261308,14.198895 205.354008,9.28176796 213.428795,9.28176796 C220.231527,9.28176796 224.324227,12.2099448 226.315271,13.5911602 L221.061129,18.4530387 C218.351097,16.3535912 215.806986,15.5801105 213.815943,15.5801105 C210.497537,15.5801105 209.723242,16.9060773 209.723242,17.7348066 C209.723242,19.3922652 211.548365,19.7237569 214.313704,20.2209945 C220.120914,21.2707182 226.868339,22.8176796 226.868339,29.6685083 C226.868339,36.4640884 220.0103,39.7790055 213.207568,39.7790055 C205.188088,39.7790055 201.040081,35.9116022 199.214957,34.198895 Z M232.952082,10.8287293 L232.952082,1.87845304 L241.414017,1.87845304 L241.414017,10.8839779 L247,10.8839779 L247,16.0773481 L241.35871,16.0773481 L241.35871,29.0607735 C241.303403,30.8287293 241.303403,32.320442 243.570981,32.320442 L246.612853,32.2099448 L246.612853,38.839779 C244.78773,39.1160221 243.681594,39.281768 242.133005,39.281768 C239.201747,39.281768 235.993954,39.1160221 234.168831,36.4640884 C233.007389,34.7513812 232.952082,32.7071823 232.952082,29.9447514 L232.952082,16.0220994 L228.748768,16.0220994 L228.748768,10.8287293 L232.952082,10.8287293 Z" id="Watchlist" fill="#292929"></path>
        <path d="M22.6204657,0.0552486188 L31.2483206,0.0552486188 C32.4097627,4.25414365 33.5712047,8.45303867 34.8432602,12.6519337 C37.0002239,20.1657459 37.3873712,21.3812155 38.60412,28.9502762 C39.765562,21.2154696 40.0420958,19.8895028 41.8119122,11.9337017 C42.6415137,7.9558011 43.5264219,3.97790055 44.3560233,0.0552486188 L54.0347067,0.0552486188 L44.1347962,39.0607735 L34.0689655,39.0607735 C32.8522167,34.7513812 31.6907747,30.441989 30.4187192,26.1878453 C28.3170622,19.0055249 28.2064487,18.7292818 27.0450067,13.2596685 C26.049485,18.0662983 25.9388715,18.4530387 23.726601,25.9116022 L19.9657412,39.0607735 L9.89991043,39.0607735 L0,0.0552486188 L9.73399015,0.0552486188 C13.9373041,18.5635359 14.3797582,20.6077348 15.5412002,29.0607735 C16.979176,21.3259669 17.3663233,19.8342541 19.4126735,12.0994475 L22.6204657,0.0552486188 Z" id="Path" fill="#379DFF"></path>
    </g>
</svg>